<?xml version="1.0" encoding="utf-8"?>
<!-- Generator: Adobe Illustrator 23.0.5, SVG Export Plug-In . SVG Version: 6.00 Build 0)  -->
<svg version="1.1" id="Capa_1" xmlns="http://www.w3.org/2000/svg" xmlns:xlink="http://www.w3.org/1999/xlink" x="0px" y="0px"
	 width="90px" height="90px" viewBox="0 0 90 90" style="enable-background:new 0 0 90 90;" xml:space="preserve">
<style type="text/css">
	.st0{fill:#E7B424;}
</style>
<g>
	<path class="st0" d="M79.9,68.8c1.7-1.8,2.7-4.2,2.7-6.8c0-5.6-4.5-10.1-10.1-10.1c-5.6,0-10.1,4.5-10.1,10.1c0,2.6,1,5,2.7,6.8
		c-2.1,1.1-4,2.7-5.5,4.7c-1.7-2.6-4-4.7-6.8-6.1c1.9-1.9,3-4.6,3-7.5c0-5.9-4.8-10.8-10.8-10.8c-5.9,0-10.8,4.8-10.8,10.8
		c0,2.9,1.2,5.6,3,7.5c-2.7,1.4-5,3.4-6.7,6c-0.9-1.2-1.9-2.2-3.1-3.1c-0.7-0.5-1.5-1-2.2-1.4c1.7-1.8,2.7-4.2,2.7-6.8
		c0-5.6-4.5-10.1-10.1-10.1c-5.6,0-10.1,4.5-10.1,10.1c0,2.6,1,5,2.7,6.8c-5.1,2.7-8.7,8.1-8.7,14.3v3c0,1.4,1.1,2.6,2.6,2.6H86
		c1.4,0,2.6-1.1,2.6-2.6v-3C88.6,76.9,85,71.5,79.9,68.8L79.9,68.8z M17.8,56.9c2.8,0,5,2.2,5,5c0,2.8-2.2,5-5,5c-2.8,0-5-2.2-5-5
		C12.8,59.2,15,56.9,17.8,56.9L17.8,56.9z M27.7,82.8v0.7H6.8v-0.4c0-6.1,4.9-11,11-11c4.6,0,8.7,2.9,10.3,7.2
		C27.8,80.4,27.7,81.6,27.7,82.8L27.7,82.8z M45,54.2c3.1,0,5.7,2.5,5.7,5.7c0,3.1-2.5,5.7-5.7,5.7c-3.1,0-5.7-2.5-5.7-5.7
		C39.3,56.7,41.9,54.2,45,54.2L45,54.2z M57.2,83.5H32.8v-0.7c0-6.7,5.5-12.2,12.2-12.2c6.7,0,12.2,5.5,12.2,12.2V83.5z M72.5,56.9
		c2.8,0,5,2.2,5,5c0,2.8-2.2,5-5,5c-2.8,0-5-2.2-5-5C67.5,59.2,69.7,56.9,72.5,56.9L72.5,56.9z M83.5,83.5H62.3v-0.7
		c0-1.1-0.1-2.1-0.3-3.1c1.5-4.5,5.7-7.6,10.5-7.6c6.1,0,11,4.9,11,11V83.5z M83.5,83.5"/>
	<path class="st0" d="M79.6,1.4H10.4c-5,0-9,4-9,9v17.8c0,5,4,9,9,9h24.7l8.3,7c1,0.8,2.3,0.8,3.3,0l8.3-7h24.7c5,0,9-4,9-9V10.4
		C88.6,5.5,84.5,1.4,79.6,1.4L79.6,1.4z M83.5,28.2c0,2.1-1.7,3.9-3.9,3.9H54c-0.6,0-1.2,0.2-1.6,0.6L45,38.9l-7.3-6.2
		c-0.5-0.4-1-0.6-1.6-0.6H10.4c-2.1,0-3.9-1.7-3.9-3.9V10.4c0-2.1,1.7-3.9,3.9-3.9h69.2c2.1,0,3.9,1.7,3.9,3.9V28.2z M83.5,28.2"/>
	<path class="st0" d="M75.8,11.6H64.9c-1.4,0-2.6,1.1-2.6,2.6s1.1,2.6,2.6,2.6h10.9c1.4,0,2.6-1.1,2.6-2.6S77.2,11.6,75.8,11.6
		L75.8,11.6z M75.8,11.6"/>
	<path class="st0" d="M57.2,14.2c0-1.4-1.1-2.6-2.6-2.6H14.2c-1.4,0-2.6,1.1-2.6,2.6s1.1,2.6,2.6,2.6h40.5
		C56.1,16.8,57.2,15.6,57.2,14.2L57.2,14.2z M57.2,14.2"/>
	<path class="st0" d="M75.8,21.9H42.9c-1.4,0-2.6,1.1-2.6,2.6c0,1.4,1.1,2.6,2.6,2.6h32.9c1.4,0,2.6-1.1,2.6-2.6
		C78.4,23,77.2,21.9,75.8,21.9L75.8,21.9z M75.8,21.9"/>
	<path class="st0" d="M32.8,21.9H14.2c-1.4,0-2.6,1.1-2.6,2.6c0,1.4,1.1,2.6,2.6,2.6h18.6c1.4,0,2.6-1.1,2.6-2.6
		C35.4,23,34.2,21.9,32.8,21.9L32.8,21.9z M32.8,21.9"/>
</g>
</svg>
