<?xml version="1.0" encoding="utf-8"?>
<!-- Generator: Adobe Illustrator 23.0.5, SVG Export Plug-In . SVG Version: 6.00 Build 0)  -->
<svg version="1.1" id="Capa_1" xmlns="http://www.w3.org/2000/svg" xmlns:xlink="http://www.w3.org/1999/xlink" x="0px" y="0px"
	 width="90px" height="90px" viewBox="0 0 90 90" style="enable-background:new 0 0 90 90;" xml:space="preserve">
<style type="text/css">
	.st0{fill:#E7B424;}
</style>
<g>
	<path class="st0" d="M63.9,5.9l0.3,5.5c0.1,1.4,1.3,2.5,2.7,2.4c1.3-0.1,2.5-1.1,2.4-2.9c2.8,2.2,5.2,4.7,7.4,7.6
		c3.2,4.3,5.5,9,6.8,14.1c0.4,1.4,1.7,2.2,3.1,1.8c1.4-0.4,2.2-1.8,1.8-3.1c-1.5-5.7-4.1-11.1-7.6-15.8c-2.5-3.3-5.4-6.3-8.7-8.8
		l0.4-0.1c1.3-0.4,2.1-1.9,1.6-3.2c-0.4-1.3-1.9-2.1-3.2-1.6l-5.3,1.7C64.6,3.7,63.9,4.7,63.9,5.9L63.9,5.9z"/>
	<path class="st0" d="M5.7,33.5c0.7,0.9,2,1.1,3,0.6l5-2.4c1.3-0.6,1.8-2.1,1.2-3.4c-0.6-1.2-2-1.9-3.6-1.1c1-3.4,2.4-6.6,4.3-9.7
		c2.8-4.5,6.3-8.4,10.5-11.6c1.1-0.8,1.4-2.4,0.5-3.6c-0.8-1.1-2.4-1.4-3.6-0.5c-4.8,3.5-8.7,7.9-11.8,13c-2.2,3.6-3.8,7.4-5,11.3
		l-0.3-0.3c-0.9-1.1-2.5-1.2-3.6-0.3c-1.1,0.9-1.2,2.5-0.3,3.6C6.4,34.4,5.5,33.4,5.7,33.5z"/>
	<path class="st0" d="M62.6,78.4l-4.8-2.8c-1.2-0.7-2.8-0.3-3.5,0.9c-0.6,1.1-0.5,2.7,1.1,3.6c-3.4,1.1-6.8,1.7-10.4,1.9
		c-5.3,0.3-10.5-0.5-15.5-2.2c-1.3-0.5-2.8,0.2-3.3,1.6c-0.5,1.3,0.2,2.8,1.6,3.3c5.6,2,11.5,2.8,17.4,2.5c4.2-0.2,8.2-1,12.2-2.3
		l-0.1,0.4c-0.5,1.6,0.8,3.2,2.5,3.2c1.1,0,2.1-0.7,2.5-1.9l1.5-5.4C64.1,80.2,63.6,79,62.6,78.4L62.6,78.4z"/>
	<path class="st0" d="M79.2,41.5H60.1c-5.2,0-9.4,4.2-9.4,9.4v7.8c0,2.5,1,4.9,2.7,6.6c2,2,4.3,2.7,7,2.7l6.9,6.9c1,1,2.6,1,3.6,0
		l6.9-6.9h1.3c5.2,0,9.4-4.2,9.4-9.4v-7.8C88.6,45.7,84.3,41.5,79.2,41.5L79.2,41.5z M83.5,58.6c0,2.4-1.9,4.3-4.3,4.3
		c-2.3,0-3.2-0.2-4.1,0.7l-5.9,5.9l-5.9-5.9c-0.9-0.9-1.9-0.7-3.3-0.7c-1.1,0-2.2-0.4-3-1.3c-0.8-0.8-1.3-1.9-1.3-3v-7.8
		c0-2.4,1.9-4.3,4.3-4.3h19.1c2.4,0,4.3,1.9,4.3,4.3V58.6z"/>
	<path class="st0" d="M30.4,35.9c-0.1,2,1.9,3.3,3.7,2.5l9.3-4.5C44.3,34,45.1,34,46,34c9,0,16.3-7.3,16.3-16.3
		c0-9-7.3-16.3-16.3-16.3c-9,0-16.3,7.3-16.3,16.3c0,2.4,0.5,4.8,1.5,6.9L30.4,35.9z M46,6.5c6.2,0,11.2,5,11.2,11.2
		c0,6.2-5,11.2-11.2,11.2c-0.8,0-1.6-0.1-2.4-0.3c-0.6-0.1-1.1-0.1-1.7,0.2l-6.1,3l0.5-7.5c0-0.5-0.1-1-0.3-1.4
		c-0.9-1.6-1.3-3.4-1.3-5.2C34.8,11.6,39.8,6.5,46,6.5z"/>
	<path class="st0" d="M35.8,70.3v-3.8l8.1-5.1c0.7-0.5,1.2-1.3,1.2-2.2c0-0.9-0.4-1.7-1.2-2.2L35.8,52v-5.2c0-1.4-1.1-2.6-2.6-2.6H4
		c-1.4,0-2.6,1.1-2.6,2.6v23.5c0,1.4,1.1,2.6,2.6,2.6h29.3C34.7,72.9,35.8,71.8,35.8,70.3L35.8,70.3z M30.7,65.2v2.6H6.5V49.3h24.2
		v4.1c0,0.9,0.4,1.7,1.2,2.2l5.8,3.7L31.9,63C31.2,63.5,30.7,64.3,30.7,65.2L30.7,65.2z"/>
	<circle class="st0" cx="69.6" cy="55.4" r="2.6"/>
	<circle class="st0" cx="61.1" cy="55.4" r="2.6"/>
	<circle class="st0" cx="78.1" cy="55.4" r="2.6"/>
	<circle class="st0" cx="22.8" cy="58.6" r="2.6"/>
	<circle class="st0" cx="14.3" cy="58.6" r="2.6"/>
	<circle class="st0" cx="50.3" cy="17.3" r="2.6"/>
	<circle class="st0" cx="41.8" cy="17.3" r="2.6"/>
</g>
</svg>
