<?xml version="1.0" encoding="utf-8"?>
<!-- Generator: Adobe Illustrator 23.0.5, SVG Export Plug-In . SVG Version: 6.00 Build 0)  -->
<svg version="1.1" id="Capa_1" xmlns="http://www.w3.org/2000/svg" xmlns:xlink="http://www.w3.org/1999/xlink" x="0px" y="0px"
	 width="90px" height="90px" viewBox="0 0 90 90" style="enable-background:new 0 0 90 90;" xml:space="preserve">
<style type="text/css">
	.st0{fill:#E7B424;}
</style>
<g>
	<path id="rect1370" class="st0" d="M9.3,6.7C4.2,6.7,0,10.9,0,16v42.7c0,5.1,4.2,9.3,9.3,9.3h45.8c1.1,8.6,8.5,15.4,17.4,15.4
		c9.7,0,17.5-7.9,17.5-17.5c0-4.2-1.5-8.1-4-11.1V16c0-5.1-4.2-9.3-9.3-9.3L9.3,6.7z M9.3,11.6h6.4V29c0,3.5,2.9,6.5,6.5,6.5h10.5
		c3.5,0,6.5-2.9,6.5-6.5V11.6h37.6c2.5,0,4.4,1.9,4.4,4.4v34.6c-2.6-1.5-5.5-2.3-8.7-2.3c-8.7,0-16,6.5-17.3,14.8H9.3
		c-2.5,0-4.4-1.9-4.4-4.4V16C4.9,13.5,6.8,11.6,9.3,11.6z M20.6,11.6h13.7V29c0,0.9-0.7,1.6-1.6,1.6H22.2c-0.9,0-1.6-0.7-1.6-1.6
		L20.6,11.6z M72.5,53.1c3.6,0,6.9,1.5,9.2,3.9c0,0.1,0.1,0.1,0.2,0.2c2.1,2.3,3.3,5.3,3.3,8.6c0,7-5.6,12.7-12.7,12.7
		s-12.7-5.6-12.7-12.7S65.4,53.1,72.5,53.1z"/>
	<path id="path1377" class="st0" d="M55.9,16.3c-1.3,0-2.4,1.1-2.4,2.4v0v1.2c-2.1,0.8-3.9,2.4-4.5,4.8l0,0l0,0
		C48.4,27,49,29.3,50.5,31c1.5,1.7,3.4,2.4,4.8,2.9c1.4,0.5,2.3,0.9,2.8,1.3c0.4,0.5,0.6,1.2,0.4,1.7c-0.4,1.4-1.8,2.1-3.7,1.4
		c-0.6-0.3-1.1-1-1.1-1.5c-0.2-1.3-1.5-2.2-2.8-2c0,0,0,0,0,0c-1.3,0.2-2.2,1.5-2,2.8c0,0,0,0,0,0c0.4,2.2,1.8,4.1,3.8,5.2l0.1,0
		l0.1,0c0.2,0.1,0.4,0.1,0.6,0.2v1.2c0,1.3,1.1,2.4,2.4,2.4c1.3,0,2.4-1.1,2.4-2.4V43c2.3-0.7,4.3-2.4,5-5l0,0l0,0
		c0.5-2.2-0.1-4.5-1.6-6.2l0-0.1l-0.1-0.1c-1.5-1.5-3.3-2-4.6-2.5c-1.3-0.5-2.2-0.9-2.8-1.5l0,0l0,0c-0.4-0.5-0.6-1.2-0.5-1.8
		c0.4-1.4,1.8-2.1,3.7-1.4c0.6,0.3,1.1,1,1.2,1.5c0.2,1.3,1.5,2.2,2.8,2c1.3-0.2,2.2-1.5,2-2.8c-0.4-2.2-1.8-4.1-3.8-5.2l-0.1,0
		l-0.1,0c-0.3-0.1-0.7-0.2-1-0.3v-1C58.3,17.4,57.2,16.3,55.9,16.3C55.9,16.3,55.9,16.3,55.9,16.3z"/>
	<path id="path1402" class="st0" d="M15.5,42.8c-1.3,0-2.4,1.1-2.4,2.4c0,1.3,1.1,2.4,2.4,2.4h0h23.9c1.3,0,2.4-1.1,2.4-2.4
		c0,0,0,0,0,0c0-1.3-1.1-2.4-2.4-2.4H15.5z"/>
	<path id="path1406" class="st0" d="M15.5,52.2c-1.3,0-2.4,1.1-2.4,2.4c0,1.3,1.1,2.4,2.4,2.4h23.9c1.3,0,2.4-1.1,2.4-2.4
		c0-1.3-1.1-2.4-2.4-2.4H15.5z"/>
	<path id="path1431" class="st0" d="M72.5,57.3c-1.3,0-2.4,1.1-2.4,2.4v0v3.6h-3.6c-1.3,0-2.4,1.1-2.4,2.4c0,1.3,1.1,2.4,2.4,2.4H70
		v3.6c0,1.3,1.1,2.4,2.4,2.4h0c1.3,0,2.4-1.1,2.4-2.4c0,0,0,0,0,0v-3.6h3.6c1.3,0,2.4-1.1,2.4-2.4c0-1.3-1.1-2.4-2.4-2.4h-3.6v-3.6
		C74.9,58.4,73.8,57.3,72.5,57.3C72.5,57.3,72.5,57.3,72.5,57.3z"/>
</g>
</svg>
