<?xml version="1.0" encoding="utf-8"?>
<!-- Generator: Adobe Illustrator 23.0.5, SVG Export Plug-In . SVG Version: 6.00 Build 0)  -->
<svg version="1.1" id="Capa_1" xmlns="http://www.w3.org/2000/svg" xmlns:xlink="http://www.w3.org/1999/xlink" x="0px" y="0px"
	 width="90px" height="90px" viewBox="0 0 90 90" style="enable-background:new 0 0 90 90;" xml:space="preserve">
<style type="text/css">
	.st0{fill:#E7B424;}
</style>
<g>
	<path class="st0" d="M47.7,58.5v-0.6c1.4-0.3,2.6-0.9,3.6-1.9c1.3-1.3,2.1-3,2-4.8l0,0c0-2.1-1.1-4.2-2.9-5.4l-7.7-5.5
		c-1.4-1-0.6-3.1,1-3.1h2.4c1,0,1.8,0.8,1.8,1.7c0,1.4,1.2,2.6,2.7,2.6s2.7-1.2,2.7-2.6c0-3.3-2.4-6-5.6-6.7v-0.6
		c0-1.4-1.2-2.6-2.7-2.6c-1.5,0-2.7,1.2-2.7,2.6v0.6c-3.2,0.6-5.6,3.4-5.6,6.7c0,2.2,1.1,4.2,2.9,5.5l7.7,5.5c1.3,1,0.7,3.1-1,3.1
		l-2.4,0c0,0,0,0,0,0c-1,0-1.8-0.8-1.8-1.7c0-1.4-1.2-2.6-2.7-2.6c0,0,0,0,0,0c-1.5,0-2.7,1.2-2.6,2.6c0,3.3,2.4,6,5.6,6.6v0.6
		c0,1.4,1.2,2.6,2.7,2.6C46.5,61.1,47.7,59.9,47.7,58.5L47.7,58.5z"/>
	<path class="st0" d="M72.1,45C72.1,30.6,60,18.8,45,18.8S17.9,30.6,17.9,45S30,71.2,45,71.2S72.1,59.4,72.1,45L72.1,45z M23.2,45
		c0-11.6,9.8-21.1,21.8-21.1S66.8,33.4,66.8,45S57,66.1,45,66.1S23.2,56.6,23.2,45L23.2,45z"/>
	<path class="st0" d="M9.9,70.3c5.5,7.1,13.3,12.5,22.1,15.1c1.4,0.4,2.9-0.3,3.3-1.7c0.4-1.4-0.3-2.8-1.7-3.2
		c-16.2-4.9-27-19.1-27-35.5c0-14.5,8.5-27.3,21.7-33.5l-0.6,1.6c-0.5,1.3,0.2,2.8,1.6,3.3c1.4,0.5,2.9-0.2,3.4-1.5l2.6-6.9
		c0.5-1.3-0.2-2.7-1.5-3.3l-8.2-3.3c-1.4-0.5-2.9,0.1-3.5,1.4s0.1,2.8,1.4,3.4L25.7,7c-6.2,3-11.7,7.3-15.9,12.7
		C4.2,27,1.2,35.8,1.2,45S4.2,63,9.9,70.3L9.9,70.3z"/>
	<path class="st0" d="M80.1,70.3c5.7-7.4,8.7-16.1,8.7-25.3s-3-18-8.7-25.3C74.6,12.6,66.8,7.2,58.1,4.6c-1.4-0.4-2.9,0.3-3.3,1.7
		s0.3,2.8,1.7,3.2c16.2,4.9,27,19.1,27,35.5c0,14.5-8.5,27.3-21.7,33.5l0.6-1.6c0.5-1.3-0.2-2.8-1.6-3.3c-1.4-0.5-2.9,0.2-3.4,1.5
		l-2.6,6.9c-0.5,1.3,0.1,2.7,1.5,3.3c9,3.6,8.5,3.5,9.2,3.5c1,0,2-0.6,2.5-1.6c0.6-1.3-0.1-2.8-1.4-3.4L64.3,83
		C70.5,80.1,76,75.7,80.1,70.3L80.1,70.3z"/>
</g>
</svg>
