<?xml version="1.0" encoding="utf-8"?>
<!-- Generator: Adobe Illustrator 23.0.5, SVG Export Plug-In . SVG Version: 6.00 Build 0)  -->
<svg version="1.1" id="Capa_1" xmlns="http://www.w3.org/2000/svg" xmlns:xlink="http://www.w3.org/1999/xlink" x="0px" y="0px"
	 width="90px" height="90px" viewBox="0 0 90 90" style="enable-background:new 0 0 90 90;" xml:space="preserve">
<style type="text/css">
	.st0{fill:#E7B424;}
</style>
<g>
	<path class="st0" d="M19.3,37h10.3c1.4,0,2.6-1.2,2.6-2.6V24.2c0-1.4-1.2-2.6-2.6-2.6H19.3c-1.4,0-2.6,1.2-2.6,2.6v10.3
		C16.8,35.9,17.9,37,19.3,37z M21.9,26.7H27v5.1h-5.1V26.7z"/>
	<path class="st0" d="M19.3,57.6h10.3c1.4,0,2.6-1.2,2.6-2.6V44.7c0-1.4-1.2-2.6-2.6-2.6H19.3c-1.4,0-2.6,1.2-2.6,2.6V55
		C16.8,56.4,17.9,57.6,19.3,57.6z M21.9,47.3H27v5.1h-5.1V47.3z"/>
	<path class="st0" d="M54.6,26.7H60c1.4,0,2.6-1.2,2.6-2.6s-1.2-2.6-2.6-2.6h-5.4c-1.4,0-2.6,1.2-2.6,2.6S53.1,26.7,54.6,26.7z"/>
	<path class="st0" d="M39.9,26.7h5.4c1.4,0,2.6-1.2,2.6-2.6s-1.2-2.6-2.6-2.6h-5.4c-1.4,0-2.6,1.2-2.6,2.6S38.5,26.7,39.9,26.7
		L39.9,26.7z"/>
	<path class="st0" d="M39.9,37H60c1.4,0,2.6-1.2,2.6-2.6c0-1.4-1.2-2.6-2.6-2.6H39.9c-1.4,0-2.6,1.2-2.6,2.6
		C37.3,35.9,38.5,37,39.9,37z"/>
	<path class="st0" d="M39.9,47.6H60c1.4,0,2.6-1.2,2.6-2.6s-1.2-2.6-2.6-2.6H39.9c-1.4,0-2.6,1.2-2.6,2.6S38.5,47.6,39.9,47.6z"/>
	<path class="st0" d="M72.8,52.9v-44c0-1.4-1.2-2.6-2.6-2.6H57.4V3.7c0-1.4-1.2-2.6-2.6-2.6H24.5c-1.4,0-2.6,1.2-2.6,2.6v2.6H9.1
		c-1.4,0-2.6,1.2-2.6,2.6v77.4c0,1.4,1.2,2.6,2.6,2.6h55.5c10.6,0,18.9-8.7,18.9-18.9C83.5,62.7,79.3,56,72.8,52.9L72.8,52.9z
		 M52.3,6.3v3.3c0,1-0.8,1.9-1.9,1.9H28.9c-1,0-1.9-0.8-1.9-1.9c0-1.3,0-1.3,0-3.3H52.3z M22.2,11.4c0.8,3,3.5,5.1,6.7,5.1h21.5
		c3.2,0,5.9-2.2,6.7-5.1h10.5v39.8c-1-0.2-2.1-0.3-3.1-0.3c-10.4,0-18.9,8.5-18.9,18.9c0,1.2,0.1,2.4,0.3,3.5H11.6v-62L22.2,11.4z
		 M11.6,78.6h36.1c1,1.9,2.3,3.7,3.9,5.1h-40L11.6,78.6z M64.6,83.7c-7.8,0-13.8-6.3-13.8-13.8c0-7.6,6.2-13.8,13.8-13.8
		c7.8,0,13.8,6.3,13.8,13.8C78.4,77.4,72.3,83.7,64.6,83.7z"/>
	<path class="st0" d="M69.2,64.1l-6.1,6.1L60,67.1c-1-1-2.6-1-3.6,0c-1,1-1,2.6,0,3.6l4.9,4.9c1,1,2.6,1,3.6,0l7.9-7.9
		c1-1,1-2.6,0-3.6C71.8,63.1,70.2,63.1,69.2,64.1L69.2,64.1z"/>
</g>
</svg>
