<?xml version="1.0" encoding="utf-8"?>
<!-- Generator: Adobe Illustrator 23.0.5, SVG Export Plug-In . SVG Version: 6.00 Build 0)  -->
<svg version="1.1" id="Capa_1" xmlns="http://www.w3.org/2000/svg" xmlns:xlink="http://www.w3.org/1999/xlink" x="0px" y="0px"
	 width="90px" height="90px" viewBox="0 0 90 90" style="enable-background:new 0 0 90 90;" xml:space="preserve">
<style type="text/css">
	.st0{fill:#E7B424;}
</style>
<g>
	<path class="st0" d="M74.5,89.2H15.5c-4.6,0-8.4-3.8-8.4-8.4V9.2c0-4.6,3.8-8.4,8.4-8.4h44.8c2.1,0,4.2,0.8,5.8,2.3l14.1,13.3
		c1.7,1.6,2.6,3.8,2.6,6.1v58.3C82.9,85.4,79.1,89.2,74.5,89.2L74.5,89.2z M15.5,5c-2.3,0-4.2,1.9-4.2,4.2v71.6
		c0,2.3,1.9,4.2,4.2,4.2h58.9c2.3,0,4.2-1.9,4.2-4.2V22.5c0-1.2-0.5-2.3-1.3-3.1L63.3,6.2C62.5,5.4,61.5,5,60.4,5L15.5,5z"/>
	<path class="st0" d="M80.2,21.9H66c-3.5,0-6.3-2.8-6.3-6.3V3.1c0-1.2,0.9-2.1,2.1-2.1s2.1,0.9,2.1,2.1v12.5c0,1.2,0.9,2.1,2.1,2.1
		h14.1c1.2,0,2.1,0.9,2.1,2.1C82.3,20.9,81.3,21.9,80.2,21.9z"/>
	<path class="st0" d="M70.3,42.9H19.7c-1.2,0-2.1-0.9-2.1-2.1v-8.4c0-3.5,2.8-6.3,6.3-6.3H66c3.5,0,6.3,2.8,6.3,6.3v8.4
		C72.4,42,71.4,42.9,70.3,42.9z M21.9,38.7h46.3v-6.3c0-1.2-0.9-2.1-2.1-2.1H24c-1.2,0-2.1,0.9-2.1,2.1V38.7z"/>
	<path class="st0" d="M70.3,55.5H19.7c-1.2,0-2.1-0.9-2.1-2.1V40.8c0-1.2,0.9-2.1,2.1-2.1h50.5c1.2,0,2.1,0.9,2.1,2.1v12.6
		C72.4,54.6,71.4,55.5,70.3,55.5z M21.9,51.3h46.3v-8.4H21.9V51.3z"/>
	<path class="st0" d="M70.3,68.1H24c-3.5,0-6.3-2.8-6.3-6.3v-8.4c0-1.2,0.9-2.1,2.1-2.1h50.5c1.2,0,2.1,0.9,2.1,2.1V66
		C72.4,67.2,71.4,68.1,70.3,68.1z M21.9,55.5v6.3c0,1.2,0.9,2.1,2.1,2.1h44.2v-8.4H21.9z"/>
	<path class="st0" d="M70.3,68.1H57.6c-1.2,0-2.1-0.9-2.1-2.1V28.2c0-1.2,0.9-2.1,2.1-2.1H66c3.5,0,6.3,2.8,6.3,6.3V66
		C72.4,67.2,71.4,68.1,70.3,68.1z M59.7,63.9h8.4V32.4c0-1.2-0.9-2.1-2.1-2.1h-6.3V63.9z"/>
	<path class="st0" d="M66,78.7H40.8c-3.5,0-6.3-2.8-6.3-6.3V66c0-1.2,0.9-2.1,2.1-2.1h33.7c1.2,0,2.1,0.9,2.1,2.1v6.3
		C72.4,75.8,69.5,78.7,66,78.7z M38.7,68.1v4.2c0,1.2,0.9,2.1,2.1,2.1H66c1.2,0,2.1-0.9,2.1-2.1v-4.2H38.7z"/>
	<path class="st0" d="M32.4,17.6H19.7c-1.2,0-2.1-0.9-2.1-2.1c0-1.2,0.9-2.1,2.1-2.1h12.6c1.2,0,2.1,0.9,2.1,2.1
		C34.5,16.7,33.5,17.6,32.4,17.6z"/>
</g>
</svg>
