<?xml version="1.0" encoding="utf-8"?>
<!-- Generator: Adobe Illustrator 23.0.5, SVG Export Plug-In . SVG Version: 6.00 Build 0)  -->
<svg version="1.1" id="Capa_1" xmlns="http://www.w3.org/2000/svg" xmlns:xlink="http://www.w3.org/1999/xlink" x="0px" y="0px"
	 width="90px" height="90px" viewBox="0 0 90 90" style="enable-background:new 0 0 90 90;" xml:space="preserve">
<style type="text/css">
	.st0{fill:#E7B424;}
</style>
<g>
	<path class="st0" d="M83.7,29.7L58,55.3L46.3,43.7c-1-1-2.6-1-3.6,0l-40,40C1.2,85.2,2.3,88,4.6,88h80.9c1.4,0,2.5-1.1,2.5-2.5v-54
		C88,29.2,85.2,28.1,83.7,29.7L83.7,29.7z M82.9,82.9H10.6L44.6,49l11.7,11.7c1,1,2.6,1,3.6,0l23.1-23.1V82.9z"/>
	<path class="st0" d="M2.8,70.1c1,1,2.6,1,3.6,0l22.4-22.4c8-1.3,14.7-6.7,17.6-14.1l9.9,9.9c1,1,2.6,1,3.6,0l23.1-23.1v2.2
		c0,1.4,1.1,2.5,2.5,2.5S88,24,88,22.6c0-8.8,0-8.3,0-8.6c-0.2-1.3-1.2-2.2-2.5-2.2h-8.2c-1.4,0-2.5,1.1-2.5,2.5s1.1,2.5,2.5,2.5
		h2.2L58,38.2L47.8,28c0.1-1,0.2-2,0.2-3C48,12.4,37.7,2,25,2S2,12.4,2,25c0,11.5,8.5,21.1,19.5,22.7L2.8,66.5
		C1.8,67.5,1.8,69.1,2.8,70.1z M7.1,25c0-9.9,8.1-18,18-18s18,8.1,18,18s-8.1,18-18,18S7.1,34.9,7.1,25z"/>
	<path class="st0" d="M27.6,37.9v-0.4c2.9-0.6,5-3.1,5-6.1v-2.6c0-3.4-2.8-6.2-6.2-6.2h-2.6c-0.7,0-1.2-0.5-1.2-1.2v-2.6
		c0-0.7,0.5-1.2,1.2-1.2h2.6c0.7,0,1.2,0.5,1.2,1.2c0,1.4,1.1,2.5,2.5,2.5c1.4,0,2.5-1.1,2.5-2.5c0-3-2.2-5.5-5-6.1v-0.4
		c0-1.4-1.1-2.5-2.5-2.5s-2.5,1.1-2.5,2.5v0.4c-2.9,0.6-5,3.1-5,6.1v2.6c0,3.4,2.8,6.2,6.2,6.2h2.6c0.7,0,1.2,0.5,1.2,1.2v2.6
		c0,0.7-0.5,1.2-1.2,1.2h-2.6c-0.7,0-1.2-0.5-1.2-1.2c0-1.4-1.1-2.5-2.5-2.5s-2.5,1.1-2.5,2.5c0,3,2.2,5.5,5,6.1v0.4
		c0,1.4,1.1,2.5,2.5,2.5S27.6,39.2,27.6,37.9z"/>
</g>
</svg>
