<?xml version="1.0" encoding="utf-8"?>
<!-- Generator: Adobe Illustrator 23.0.5, SVG Export Plug-In . SVG Version: 6.00 Build 0)  -->
<svg version="1.1" id="Capa_1" xmlns="http://www.w3.org/2000/svg" xmlns:xlink="http://www.w3.org/1999/xlink" x="0px" y="0px"
	 width="90px" height="90px" viewBox="0 0 90 90" style="enable-background:new 0 0 90 90;" xml:space="preserve">
<style type="text/css">
	.st0{fill:#E7B424;}
</style>
<g>
	<path class="st0" d="M77.5,7.6H61c-1.1-3.3-4.2-5.7-7.8-5.7H36.9c-3.7,0-6.8,2.4-7.8,5.7H12.5c-1.4,0-2.5,1.1-2.5,2.5v75.5
		c0,1.4,1.1,2.5,2.5,2.5h65.1c1.4,0,2.5-1.1,2.5-2.5V10.1C80.1,8.7,78.9,7.6,77.5,7.6z M33.7,10.1c0-1.7,1.4-3.2,3.2-3.2h16.3
		c1.7,0,3.2,1.4,3.2,3.2v2.7H33.7L33.7,10.1z M75,83.1H15V12.6h13.7v2.7c0,1.4,1.1,2.5,2.5,2.5h27.6c1.4,0,2.5-1.1,2.5-2.5v-2.7H75
		V83.1z"/>
	<path class="st0" d="M37.9,34.8c0.9-1.2,1.4-2.7,1.4-4.3c0-4.2-3.4-7.6-7.6-7.6s-7.6,3.4-7.6,7.6c0,1.6,0.5,3.1,1.4,4.3
		c-3.3,2.1-5.4,5.7-5.4,9.8v1c0,1.4,1.1,2.5,2.5,2.5h18.2c1.4,0,2.5-1.1,2.5-2.5v-1C43.3,40.5,41.2,36.9,37.9,34.8z M29.2,30.5
		c0-1.4,1.1-2.5,2.5-2.5s2.5,1.1,2.5,2.5c0,1.4-1.1,2.5-2.5,2.5S29.2,31.9,29.2,30.5z M25.3,43.1c0.7-2.9,3.3-5.1,6.4-5.1
		s5.7,2.2,6.4,5.1H25.3z"/>
	<path class="st0" d="M37.9,65.2c0.9-1.2,1.4-2.7,1.4-4.3c0-4.2-3.4-7.6-7.6-7.6s-7.6,3.4-7.6,7.6c0,1.6,0.5,3.1,1.4,4.3
		C22.2,67.3,20,70.9,20,75v1c0,1.4,1.1,2.5,2.5,2.5h18.2c1.4,0,2.5-1.1,2.5-2.5v-1C43.3,70.9,41.2,67.3,37.9,65.2z M29.2,60.8
		c0-1.4,1.1-2.5,2.5-2.5s2.5,1.1,2.5,2.5s-1.1,2.5-2.5,2.5S29.2,62.2,29.2,60.8z M25.3,73.5c0.7-2.9,3.3-5.1,6.4-5.1
		s5.7,2.2,6.4,5.1H25.3z"/>
	<path class="st0" d="M67.4,38.1H50.9c-1.4,0-2.5,1.1-2.5,2.5s1.1,2.5,2.5,2.5h16.5c1.4,0,2.5-1.1,2.5-2.5S68.8,38.1,67.4,38.1z"/>
	<path class="st0" d="M50.9,28c-1.4,0-2.5,1.1-2.5,2.5c0,1.4,1.1,2.5,2.5,2.5h16.5c1.4,0,2.5-1.1,2.5-2.5c0-1.4-1.1-2.5-2.5-2.5
		H50.9z"/>
	<path class="st0" d="M67.4,68.4H50.9c-1.4,0-2.5,1.1-2.5,2.5s1.1,2.5,2.5,2.5h16.5c1.4,0,2.5-1.1,2.5-2.5S68.8,68.4,67.4,68.4z"/>
	<path class="st0" d="M67.4,58.3H50.9c-1.4,0-2.5,1.1-2.5,2.5s1.1,2.5,2.5,2.5h16.5c1.4,0,2.5-1.1,2.5-2.5S68.8,58.3,67.4,58.3z"/>
</g>
</svg>
