<?xml version="1.0" encoding="utf-8"?>
<!-- Generator: Adobe Illustrator 23.0.5, SVG Export Plug-In . SVG Version: 6.00 Build 0)  -->
<svg version="1.1" id="Capa_1" xmlns="http://www.w3.org/2000/svg" xmlns:xlink="http://www.w3.org/1999/xlink" x="0px" y="0px"
	 width="90px" height="90px" viewBox="0 0 90 90" style="enable-background:new 0 0 90 90;" xml:space="preserve">
<style type="text/css">
	.st0{fill:#E7B424;}
</style>
<g>
	<path class="st0" d="M89.2,17L73,0.8c-0.5-0.5-1.2-0.8-1.9-0.8L24.9,0c0,0,0,0,0,0c-1.5,0-2.6,1.2-2.6,2.6v19.8
		c-4.7-5.8-13.4-6.2-18.6-0.9c-6.2,6.2-4.3,16.8,3.8,20.4c4.6,2.3,13.3,7.1,18.4,11.3c-7.2,7.2-6.7,6.7-7,7.1
		c-2.7,3.2-2.4,7.8,0.4,10.6l3,3v13.5c0,1.5,1.2,2.6,2.6,2.6h62.4c1.5,0,2.6-1.2,2.6-2.6V18.9C90,18.2,89.7,17.5,89.2,17z M73.8,9.1
		l7.2,7.2h-7.2V9.1z M29.6,49.4c-2.2-1.9-4.9-3.7-7.4-5.3C12.6,38,9.2,37.3,7.4,35.5c-2.8-2.8-2.8-7.4,0-10.3
		c3.2-3.2,8.7-2.7,11.3,1.2c0.3,0.5,6.6,13.5,12.9,21C30.9,48.2,31.3,47.8,29.6,49.4z M23,63.5l11.3-11.3l2.8-2.8c0,0,0,0,0,0
		l8.6-8.6c1-1,2.6-1,3.7,0l1.9,1.9c0,0-26.3,26.3-26.3,26.3L23,67.1C22,66.1,22,64.5,23,63.5L23,63.5z M54.1,52.3L34.5,71.9L32,69.4
		l19.6-19.6L54.1,52.3z M27.6,84.7V73.9l0.7-0.7l4.4,4.3c1,1,2.7,1,3.7,0l23.3-23.3c1-1,1-2.7,0-3.7l-4.3-4.3l1.5-1.5
		c1-1,1-2.7,0-3.7l-3.8-3.8c-3.1-3.1-8-3.1-11.1,0l-6.6,6.6c-2.7-3.3-5.6-8-7.8-11.8V5.3l40.9,0v13.6c0,1.5,1.2,2.6,2.6,2.6h13.6
		v63.2L27.6,84.7z"/>
	<path class="st0" d="M69,56.8c-6.7,0-12.2,5.5-12.2,12.2c0,6.7,5.5,12.2,12.2,12.2S81.2,75.7,81.2,69C81.2,62.3,75.7,56.8,69,56.8z
		 M69,75.9c-3.8,0-6.9-3.1-6.9-6.9c0-3.8,3.1-6.9,6.9-6.9s6.9,3.1,6.9,6.9C75.9,72.8,72.8,75.9,69,75.9z"/>
	<path class="st0" d="M63.3,13.2c0-1.5-1.2-2.6-2.6-2.6H35.2c-1.5,0-2.6,1.2-2.6,2.6s1.2,2.6,2.6,2.6h25.5
		C62.1,15.9,63.3,14.7,63.3,13.2z"/>
	<path class="st0" d="M42.6,21.1h-7.5c-1.5,0-2.6,1.2-2.6,2.6s1.2,2.6,2.6,2.6h7.5c1.5,0,2.6-1.2,2.6-2.6S44.1,21.1,42.6,21.1z"/>
	<path class="st0" d="M63.3,23.8c0-1.5-1.2-2.6-2.6-2.6h-7.5c-1.5,0-2.6,1.2-2.6,2.6s1.2,2.6,2.6,2.6h7.5
		C62.1,26.4,63.3,25.2,63.3,23.8z"/>
</g>
</svg>
