<?xml version="1.0" encoding="utf-8"?>
<!-- Generator: Adobe Illustrator 23.0.5, SVG Export Plug-In . SVG Version: 6.00 Build 0)  -->
<svg version="1.1" id="Capa_1" xmlns="http://www.w3.org/2000/svg" xmlns:xlink="http://www.w3.org/1999/xlink" x="0px" y="0px"
	 width="544px" height="158px" viewBox="0 0 544 158" style="enable-background:new 0 0 544 158;" xml:space="preserve">
<style type="text/css">
	.st0{fill-rule:evenodd;clip-rule:evenodd;fill:#E7B324;}
	.st1{fill:#E7B324;}
	.st2{fill-rule:evenodd;clip-rule:evenodd;fill:#FFFFFF;}
	.st3{fill:#FFFFFF;}
</style>
<g>
	<path class="st0" d="M88.5,78.3l7.5,6.7c-9.7,8.8-20.3,13.2-32,13.2c-12.5,0-23.1-4.3-31.7-12.9c-8.6-8.6-12.9-19-12.9-31
		c0-11.9,4.3-22.3,12.9-30.9s19.2-13,31.7-13c11.6,0,22.3,4.4,32,13.3l-7.5,6.7c-7.9-7-16-10.5-24.4-10.5c-9.2,0-17.1,3.3-23.7,10
		c-6.7,6.7-10,14.8-10,24.5c0,9.7,3.3,17.9,10,24.5c6.7,6.6,14.6,10,23.7,10C72.5,88.8,80.7,85.3,88.5,78.3L88.5,78.3z M205.9,52
		c-6.2-2-11.1-4.9-14.9-8.7c-3.8-3.7-5.6-8.3-5.6-13.6c0-5.2,1.9-9.7,5.8-13.6c3.9-3.9,8.7-5.9,14.5-5.9c5.7,0,10.6,2,14.6,6
		c2.1,2.1,3.8,5,5,8.7l-9.7,3.8c-1.2-3.2-2.3-5.3-3.2-6.3c-1.9-2-4.2-3-6.7-3c-2.5,0-4.7,1-6.6,2.9c-1.9,1.9-2.9,4.4-2.9,7.4
		c0,3,1,5.5,3,7.5c2.1,2,4.9,3.8,8.5,5.5c6.8,2.2,12.6,5.6,17.2,10.3c5.3,5.3,7.9,11.5,7.9,18.6c0,7.2-2.6,13.4-7.8,18.6
		c-5.2,5.2-11.7,7.8-19.3,7.8c-7.6,0-14.1-2.7-19.4-8.1c-4.1-4.1-6.7-9.4-7.6-15.9l10.4-3.7c0.6,6.2,2.4,10.8,5.3,13.7
		c3.2,3.2,6.9,4.8,11.3,4.8c4.4,0,8.3-1.7,11.6-4.9c3.3-3.3,4.9-7.4,4.9-12.2c0-4.9-1.6-8.9-4.8-12.1
		C214.1,56.4,210.2,53.9,205.9,52L205.9,52z M269.3,20.7v76.6h-10.7V20.7H238v-9.4h51.8v9.4H269.3L269.3,20.7z M331.7,52.2
		l-8.3-22.8l-8.3,22.8H331.7L331.7,52.2z M328.1,11.3h-9.4l-31.5,85.9h11.3l13.2-35.7h23.4L348,97.2h11.2L328.1,11.3L328.1,11.3z
		 M376.6,11.3l49,68.7V11.3h10.8v85.9h-11.9l-47.7-66.9v66.9h-10.8V11.3H376.6L376.6,11.3z M491.3,10.1c12.5,0,23.1,4.3,31.7,13
		c8.7,8.7,13,19,13,31c0,12.1-4.3,22.4-13,31.1c-8.7,8.6-19.2,13-31.7,13c-12.5,0-23-4.3-31.7-13c-8.7-8.7-13-19-13-31.1
		c0-12,4.3-22.3,13-31C468.3,14.4,478.8,10.1,491.3,10.1L491.3,10.1z M491.3,19.5c-9.2,0-17.1,3.4-23.8,10.1
		c-6.7,6.7-10,14.9-10,24.5c0,9.7,3.3,17.9,10,24.6c6.7,6.7,14.6,10,23.8,10c9.2,0,17.1-3.3,23.8-10c6.7-6.7,10-14.9,10-24.6
		c0-9.6-3.3-17.8-10-24.5C508.4,22.9,500.5,19.5,491.3,19.5z"/>
	<path class="st0" d="M335.1,147.4h-1.6v-3.6c-0.3,0.4-0.6,0.8-1,1.2c-1.9,1.9-4.2,2.9-7,2.9c-2.7,0-5-1-6.9-2.9
		c-1.9-1.9-2.9-4.2-2.9-6.9c0-2.7,1-5,2.9-7c1.9-1.9,4.2-2.9,6.9-2.9c2.7,0,5,1,7,2.9c0.4,0.4,0.7,0.8,1,1.2v-2.5h1.6V147.4
		L335.1,147.4z M333.5,139.7v-3.2c-0.3-1.6-1-3-2.2-4.1c-1.6-1.6-3.5-2.4-5.7-2.4c-2.2,0-4.1,0.8-5.7,2.4c-1.6,1.6-2.4,3.5-2.4,5.7
		c0,2.2,0.8,4.1,2.4,5.7c1.6,1.6,3.5,2.4,5.7,2.4c2.2,0,4.1-0.8,5.7-2.4C332.4,142.6,333.2,141.2,333.5,139.7L333.5,139.7z
		 M357.8,147.4h-1.6v-3.6c-0.3,0.4-0.6,0.8-1,1.2c-1.9,1.9-4.2,2.9-7,2.9c-2.7,0-5-1-6.9-2.9c-1.9-1.9-2.9-4.2-2.9-6.9
		c0-2.7,1-5,2.9-7c1.9-1.9,4.2-2.9,6.9-2.9c2.7,0,5,1,7,2.9c0.4,0.4,0.7,0.8,1,1.2v-13.5h1.6V147.4L357.8,147.4z M356.1,139.7v-3.2
		c-0.3-1.6-1-3-2.2-4.1c-1.6-1.6-3.5-2.4-5.7-2.4c-2.2,0-4.1,0.8-5.7,2.4c-1.6,1.6-2.4,3.5-2.4,5.7c0,2.2,0.8,4.1,2.4,5.7
		c1.6,1.6,3.5,2.4,5.7,2.4c2.2,0,4.1-0.8,5.7-2.4C355.1,142.6,355.8,141.2,356.1,139.7L356.1,139.7z M361.6,129.8h1.6v0.4
		c1-1,2.2-1.5,3.6-1.5c1.4,0,2.7,0.5,3.7,1.5c0.3,0.3,0.5,0.6,0.7,0.9c0.2-0.3,0.5-0.6,0.7-0.9c1-1,2.2-1.5,3.7-1.5
		c1.4,0,2.7,0.5,3.7,1.5c1,1,1.5,2.2,1.5,3.5v13.5h-1.6v-13.5h0c0-0.9-0.4-1.7-1-2.4c-0.7-0.7-1.6-1-2.6-1c-1,0-1.8,0.4-2.6,1
		c-0.7,0.7-1.1,1.6-1.1,2.6v13.3h-1.6v-13.5h0c0-0.9-0.4-1.7-1.1-2.4c-0.7-0.7-1.6-1-2.5-1c-1,0-1.8,0.4-2.5,1
		c-0.6,0.6-1,1.4-1.1,2.2v13.7h-1.6V129.8L361.6,129.8z M386.8,129.8v17.5h-1.6v-17.5H386.8L386.8,129.8z M386,123.6
		c0.4,0,0.8,0.2,1.1,0.5c0.3,0.3,0.5,0.7,0.5,1.1c0,0.5-0.2,0.8-0.5,1.2c-0.3,0.3-0.7,0.5-1.1,0.5c-0.4,0-0.8-0.2-1.1-0.5
		c-0.3-0.3-0.5-0.7-0.5-1.2c0-0.4,0.2-0.8,0.5-1.1S385.5,123.6,386,123.6L386,123.6z M392.8,133.7v13.6h-1.6v-17.5h1.6v1.1
		c1.5-1.5,3.2-2.2,5.1-2.2c2.1,0,3.8,0.6,5.1,1.9c1.3,1.3,2,2.9,2,4.9v11.7h-1.6v-11.6c0-1.5-0.5-2.8-1.6-3.8
		c-1.1-1.1-2.4-1.6-3.8-1.6c-1.5,0-2.7,0.5-3.8,1.6C393.5,132.5,393.1,133.1,392.8,133.7L392.8,133.7z M410.9,129.8v17.5h-1.6v-17.5
		H410.9L410.9,129.8z M410.1,123.6c0.4,0,0.8,0.2,1.1,0.5c0.3,0.3,0.5,0.7,0.5,1.1c0,0.5-0.2,0.8-0.5,1.2c-0.3,0.3-0.7,0.5-1.1,0.5
		c-0.4,0-0.8-0.2-1.1-0.5c-0.3-0.3-0.5-0.7-0.5-1.2c0-0.4,0.2-0.8,0.5-1.1C409.3,123.8,409.7,123.6,410.1,123.6L410.1,123.6z
		 M419.9,138c-1.4-0.7-2.3-1.4-2.8-1.9c-0.8-0.8-1.2-1.8-1.2-3c0-1.2,0.4-2.2,1.2-3c0.8-0.8,1.8-1.2,3-1.2c1.2,0,2.1,0.4,2.9,1.2
		c0.7,0.7,1.1,1.6,1.1,2.6v0.1l-1.4,0.6c-0.1-0.9-0.4-1.6-0.8-2c-0.4-0.5-1-0.7-1.8-0.7c-0.7,0-1.3,0.3-1.8,0.8
		c-0.5,0.5-0.8,1.1-0.8,1.8c0,0.7,0.3,1.3,0.8,1.8c0.3,0.3,0.9,0.8,1.9,1.4c1.5,0.8,2.6,1.6,3.2,2.2c1,1,1.5,2.2,1.5,3.7
		c0,1.5-0.5,2.7-1.5,3.7c-1,1-2.2,1.5-3.7,1.5c-1.4,0-2.7-0.5-3.7-1.5c-1-1-1.5-2.1-1.5-3.3l1.6-0.4c0,1,0.4,1.9,1.1,2.6
		c0.7,0.7,1.6,1.1,2.5,1.1c1,0,1.8-0.4,2.5-1.1c0.7-0.7,1.1-1.6,1.1-2.6c0-1-0.4-1.8-1.1-2.5C421.8,139.3,421,138.7,419.9,138
		L419.9,138z M430.6,129.8v-7.5h1.6v7.5h3.6v1.6h-3.6v15.9h-1.6v-15.9H427v-1.6H430.6L430.6,129.8z M444.6,131.2
		c-1.2,0.2-2.3,0.9-3.4,2.2c-1.1,1.3-1.7,2.6-1.7,3.9v10.1H438v-17.5h1.6v3.8c0.7-1.8,2.1-3.1,4.1-3.9L444.6,131.2L444.6,131.2z
		 M465.5,147.4h-1.6v-3.6c-0.3,0.4-0.6,0.8-1,1.2c-1.9,1.9-4.2,2.9-7,2.9c-2.7,0-5-1-6.9-2.9c-1.9-1.9-2.9-4.2-2.9-6.9
		c0-2.7,1-5,2.9-7c1.9-1.9,4.2-2.9,6.9-2.9c2.7,0,5,1,7,2.9c0.4,0.4,0.7,0.8,1,1.2v-2.5h1.6V147.4L465.5,147.4z M463.9,139.7v-3.2
		c-0.3-1.6-1-3-2.2-4.1c-1.6-1.6-3.5-2.4-5.7-2.4c-2.2,0-4.1,0.8-5.7,2.4c-1.6,1.6-2.4,3.5-2.4,5.7c0,2.2,0.8,4.1,2.4,5.7
		c1.6,1.6,3.5,2.4,5.7,2.4c2.2,0,4.1-0.8,5.7-2.4C462.8,142.6,463.6,141.2,463.9,139.7L463.9,139.7z M484.4,143.2l1.7,0.6
		c-0.3,0.4-0.7,0.8-1,1.2c-1.9,1.9-4.2,2.9-7,2.9c-2.7,0-5-1-6.9-2.9c-1.9-1.9-2.9-4.2-2.9-6.9c0-2.7,1-5,2.9-6.9
		c1.9-1.9,4.2-2.9,6.9-2.9c2.7,0,5,1,7,2.9c0.4,0.4,0.7,0.8,1,1.2l-1.7,0.6c-0.2-0.2-0.4-0.4-0.6-0.6c-1.6-1.6-3.5-2.4-5.7-2.4
		c-2.2,0-4.1,0.8-5.7,2.4c-1.6,1.6-2.4,3.5-2.4,5.7c0,2.2,0.8,4.1,2.4,5.7c1.6,1.6,3.5,2.4,5.7,2.4c2.2,0,4.2-0.8,5.7-2.4
		C484.1,143.6,484.3,143.4,484.4,143.2L484.4,143.2z M491.2,129.8v17.5h-1.6v-17.5H491.2L491.2,129.8z M490.4,123.6
		c0.4,0,0.8,0.2,1.1,0.5c0.3,0.3,0.5,0.7,0.5,1.1c0,0.5-0.2,0.8-0.5,1.2c-0.3,0.3-0.7,0.5-1.1,0.5c-0.4,0-0.8-0.2-1.1-0.5
		c-0.3-0.3-0.5-0.7-0.5-1.2c0-0.4,0.2-0.8,0.5-1.1C489.6,123.8,489.9,123.6,490.4,123.6L490.4,123.6z M504.8,128.3
		c2.7,0,5,1,6.9,2.9c1.9,1.9,2.9,4.2,2.9,7c0,2.7-1,5-2.9,6.9c-1.9,1.9-4.2,2.9-6.9,2.9c-2.7,0-5-1-6.9-2.9
		c-1.9-1.9-2.9-4.2-2.9-6.9c0-2.7,1-5,2.9-7C499.8,129.2,502.1,128.3,504.8,128.3L504.8,128.3z M504.8,130c-2.2,0-4.1,0.8-5.7,2.4
		c-1.6,1.6-2.4,3.5-2.4,5.7c0,2.2,0.8,4.1,2.4,5.7c1.6,1.6,3.5,2.4,5.7,2.4c2.2,0,4.1-0.8,5.7-2.4c1.6-1.6,2.4-3.5,2.4-5.7
		c0-2.2-0.8-4.1-2.4-5.7C509,130.7,507.1,130,504.8,130L504.8,130z M508.8,122.8l-4.4,3.3h-1.5l2.9-3.3H508.8L508.8,122.8z
		 M519.7,133.7v13.6h-1.6v-17.5h1.6v1.1c1.5-1.5,3.2-2.2,5.1-2.2c2.1,0,3.8,0.6,5.1,1.9c1.3,1.3,2,2.9,2,4.9v11.7h-1.6v-11.6
		c0-1.5-0.5-2.8-1.6-3.8c-1.1-1.1-2.4-1.6-3.8-1.6c-1.5,0-2.7,0.5-3.8,1.6C520.4,132.5,520,133.1,519.7,133.7z"/>
	<polygon class="st1" points="107.3,111.7 8,111.7 8,102.9 101,102.9 131.2,11.7 140.7,11.7 170.3,102.3 535.4,102.3 535.4,111.1 
		163.9,111.1 135.9,25.4 	"/>
</g>
</svg>
