<?xml version="1.0" encoding="utf-8"?>
<!-- Generator: Adobe Illustrator 23.0.5, SVG Export Plug-In . SVG Version: 6.00 Build 0)  -->
<svg version="1.1" id="Capa_1" xmlns="http://www.w3.org/2000/svg" xmlns:xlink="http://www.w3.org/1999/xlink" x="0px" y="0px"
	 width="612px" height="120px" viewBox="0 0 612 120" style="enable-background:new 0 0 612 120;" xml:space="preserve">
<style type="text/css">
	.st0{fill-rule:evenodd;clip-rule:evenodd;fill:#E7B324;}
	.st1{fill:#E7B324;}
	.st2{fill-rule:evenodd;clip-rule:evenodd;fill:#FFFFFF;}
	.st3{fill:#FFFFFF;}
</style>
<g>
	<path class="st2" d="M97.5,79.8l8.5,7.6c-11,10-23.1,15-36.3,15c-14.2,0-26.2-4.9-36-14.7C24,77.9,19.1,66.1,19.1,52.4
		c0-13.6,4.9-25.3,14.7-35.2s21.8-14.8,36-14.8c13.2,0,25.3,5,36.3,15.1l-8.5,7.6c-9-7.9-18.2-11.9-27.8-11.9
		c-10.4,0-19.4,3.8-27,11.4c-7.6,7.6-11.4,16.8-11.4,27.8c0,11,3.8,20.3,11.4,27.9c7.6,7.6,16.6,11.3,27,11.3
		C79.3,91.6,88.6,87.7,97.5,79.8L97.5,79.8z M230.8,49.9c-7-2.3-12.6-5.6-16.9-9.8c-4.3-4.2-6.4-9.4-6.4-15.4c0-5.9,2.2-11,6.6-15.5
		c4.4-4.4,9.9-6.7,16.4-6.7c6.5,0,12,2.3,16.6,6.9c2.4,2.4,4.3,5.7,5.6,9.9l-11,4.3c-1.4-3.7-2.6-6-3.7-7.1
		c-2.2-2.3-4.7-3.4-7.6-3.4c-2.8,0-5.3,1.1-7.5,3.3c-2.2,2.2-3.3,5-3.3,8.4c0,3.4,1.1,6.2,3.4,8.5c2.4,2.3,5.6,4.4,9.6,6.3
		c7.8,2.5,14.3,6.4,19.5,11.7c6,6,9,13,9,21.2c0,8.2-3,15.2-8.9,21.1c-6,5.9-13.2,8.9-21.9,8.9c-8.7,0-16-3.1-22-9.2
		c-4.7-4.7-7.6-10.7-8.7-18.1l11.8-4.3c0.7,7.1,2.7,12.3,6,15.5c3.6,3.6,7.9,5.4,12.9,5.4c5,0,9.4-1.9,13.1-5.6
		c3.7-3.7,5.6-8.4,5.6-13.9c0-5.5-1.8-10.1-5.5-13.8C240.2,54.9,235.8,52,230.8,49.9L230.8,49.9z M302.9,14.3v87h-12.2v-87h-23.3
		V3.6h58.8v10.7H302.9L302.9,14.3z M373.8,50.1l-9.4-25.9L355,50.1H373.8L373.8,50.1z M369.8,3.6h-10.7l-35.8,97.6h12.8l15-40.6
		h26.5l14.7,40.6h12.8L369.8,3.6L369.8,3.6z M424.9,3.6l55.6,78v-78h12.3v97.6h-13.6L425,25.2v76.1h-12.3V3.6H424.9L424.9,3.6z
		 M555.2,2.3c14.2,0,26.2,4.9,36.1,14.8c9.8,9.9,14.8,21.6,14.8,35.2c0,13.7-4.9,25.5-14.8,35.3c-9.8,9.8-21.9,14.8-36.1,14.8
		c-14.2,0-26.1-4.9-36-14.8c-9.8-9.8-14.8-21.6-14.8-35.3c0-13.6,4.9-25.4,14.8-35.2C529,7.2,541,2.3,555.2,2.3L555.2,2.3z
		 M555.2,13c-10.4,0-19.4,3.8-27,11.4c-7.6,7.6-11.4,16.9-11.4,27.9c0,11,3.8,20.4,11.4,28c7.6,7.6,16.6,11.4,27,11.4
		c10.4,0,19.5-3.8,27.1-11.4s11.4-16.9,11.4-28c0-11-3.8-20.2-11.4-27.9S565.6,13,555.2,13z"/>
	<polygon class="st3" points="118.9,117.7 6,117.7 6,107.7 111.6,107.7 146,4.1 156.8,4.1 190.4,107 605.3,107 605.3,117 183.1,117 
		151.4,19.6 	"/>
</g>
</svg>
